# xmcd
#
# Track frame offsets:
#	150
#	10444
#	26900
#	39565
#	53789
#	71028
#	81669
#	96505
#	119111
#	131243
#	145745
#
# Disc length: 2237 seconds
#
# Revision: 1
# Processed by: cddbd v1.5.2PL0 Copyright (c) Steve Scherf et al.
# Submitted via: audiograbber 1.83.01
#
DISCID=ae08bb0b
DTITLE=Faith Hill - Joy To The World
DYEAR=2008
DGENRE=Country
TTITLE0=Joy To The World!
TTITLE1=What Child Is This?
TTITLE2=Santa Claus Is Comin' To Town
TTITLE3=Little Drummer Boy
TTITLE4=O Come, All Ye Faithful
TTITLE5=Holly Jolly Christmas
TTITLE6=Away In A Manger
TTITLE7=O Holy Night!
TTITLE8=Winter Wonderland
TTITLE9=Silent Night, Holy Night!
TTITLE10=A Baby Changes Everything
EXTD=
EXTT0=
EXTT1=
EXTT2=
EXTT3=
EXTT4=
EXTT5=
EXTT6=
EXTT7=
EXTT8=
EXTT9=
EXTT10=
PLAYORDER=
